<?xml version="1.0" standalone="no"?>
<!DOCTYPE svg PUBLIC "-//W3C//DTD SVG 20010904//EN"
 "http://www.w3.org/TR/2001/REC-SVG-20010904/DTD/svg10.dtd">
<svg version="1.0" xmlns="http://www.w3.org/2000/svg"
 width="32.000000pt" height="32.000000pt" viewBox="0 0 32.000000 32.000000"
 preserveAspectRatio="xMidYMid meet">

<g transform="translate(0.000000,32.000000) scale(0.100000,-0.100000)"
fill="#000000" stroke="none">
<path d="M92 303 c-107 -53 -121 -197 -26 -269 31 -24 47 -29 94 -29 47 0 63
5 94 29 150 114 7 352 -162 269z m156 -22 c53 -37 76 -114 52 -175 l-10 -26
-130 0 -130 0 -11 28 c-26 65 10 154 73 185 44 21 118 15 156 -12z m7 -236
c-55 -45 -135 -45 -190 0 l-30 24 125 0 125 0 -30 -24z"/>
<path d="M127 267 c-9 -17 -34 -66 -57 -107 -22 -41 -33 -66 -25 -55 23 29
107 186 102 191 -2 2 -11 -11 -20 -29z"/>
<path d="M170 298 c0 -11 100 -191 112 -203 6 -5 -9 26 -33 70 -54 100 -79
142 -79 133z"/>
</g>
</svg>
